<?xml version="1.0" encoding="UTF-8"?>
<svg id="Capa_2" data-name="Capa 2" xmlns="http://www.w3.org/2000/svg" viewBox="0 0 5455.13 2503.1" fill="#F0F0F5">
  <g>
    <path d="M1026.14,2503.1c-325.23,0-577.01-72.88-755.34-218.68C92.48,2138.62,2.21,1930.03,0,1658.6h447.45c2.21,170.49,53.23,292.75,153.06,366.74,99.83,74.03,246.16,111.02,439.09,111.02,157,0,276.96-29.69,359.97-89.16,82.97-59.43,124.47-145.23,124.47-257.35,0-94.21-35.36-165.98-105.98-215.32-70.67-49.34-199.08-93.1-385.19-131.24l-201.87-40.36C317.36,1306.51,60.53,1064.29,60.53,676.22c0-206.33,78.5-370.63,235.5-492.85C453.03,61.15,670.6,0,948.75,0c316.21,0,555.64,67.3,718.26,201.87,162.62,134.61,248.42,322.98,257.4,565.2h-440.72c-8.98-136.82-54.43-237.75-136.29-302.8-81.86-65.05-212.53-97.57-391.92-97.57-139.08,0-245.63,25.8-319.61,77.39-74.03,51.59-111.02,124.52-111.02,218.68s34.2,170.45,102.61,222.04c68.41,51.59,190.05,95.36,365.01,131.2l208.59,40.4c280.36,56.11,482.76,139.65,607.28,250.67,124.47,111.02,186.73,264.08,186.73,459.22,0,233.28-85.27,414.4-255.72,543.34-170.45,128.99-408.2,193.46-713.21,193.46Z"/>
    <path d="M2012.71,437.36V53.81h1638.42v363.38c-271.43,287.09-467.67,587.63-588.78,901.63-125.58,323.02-191.73,699.8-198.46,1130.44h-471.04c13.45-773.79,278.11-1444.43,794.01-2011.89h-1174.16Z"/>
    <path d="M3816.71,437.36V53.81h1638.42v363.38c-271.43,287.09-467.67,587.63-588.78,901.63-125.58,323.02-191.73,699.8-198.46,1130.44h-471.03c13.45-773.79,278.11-1444.43,794.01-2011.89h-1174.16Z"/>
  </g>
  <g>
    <path d="M4894.63,2177.42h224.91v45.97h-86.62v224.53h-51.67v-224.53h-86.62v-45.97Z"/>
    <path d="M5313.67,2306.2l45.21-128.79h74.46v270.49h-49.01v-82.44c0-50.65.51-95.36,1.52-134.11-5.58,19-12.41,39.77-20.52,62.31l-54.71,154.24h-42.17l-55.08-154.24c-9.63-28.11-16.34-48.63-20.14-61.55,1.01,38.5,1.52,82.95,1.52,133.35v82.44h-49.39v-270.49h74.46l46.73,131.45c3.04,8.87,10.76,33.31,23.17,73.32,8.1-28.11,16.08-53.44,23.93-75.98Z"/>
  </g>
</svg>