<?xml version="1.0" encoding="UTF-8"?>
<svg id="Capa_1" data-name="Capa 1" xmlns="http://www.w3.org/2000/svg" xmlns:xlink="http://www.w3.org/1999/xlink" viewBox="0 0 518.74 121.89">
  <defs>
    <style>
      .cls-1 {
        fill: #fff;
      }

      .cls-2 {
        fill: url(#Degradado_sin_nombre_172);
      }
    </style>
    <linearGradient id="Degradado_sin_nombre_172" data-name="Degradado sin nombre 172" x1="0" y1="60.95" x2="347.89" y2="60.95" gradientUnits="userSpaceOnUse">
      <stop offset="0" stop-color="#45d7b5"/>
      <stop offset=".36" stop-color="#58b7cb"/>
      <stop offset="1" stop-color="#8178fa"/>
    </linearGradient>
  </defs>
  <g>
    <g>
      <path class="cls-1" d="M77.29,74.61c0,9.05-2.35,15.93-7.04,20.62-4.69,4.7-11.46,7.04-20.29,7.04s-15.59-2.35-20.29-7.04c-4.69-4.69-7.04-11.57-7.04-20.62V0H0v74.44c0,14.98,4.44,26.63,13.33,34.96,8.89,8.33,21.1,12.49,36.63,12.49s27.89-4.11,36.72-12.32c8.83-8.21,13.24-19.92,13.24-35.12V0h-22.63v74.61Z"/>
      <rect class="cls-1" x="116.52" width="21.12" height="119.38"/>
      <path class="cls-1" d="M182.75,7.71h-20.96v25.15h-13.41v16.1h13.41v48.96c0,7.71,2.15,13.33,6.46,16.85,4.3,3.52,11.15,5.28,20.54,5.28,2.79,0,6.48-.22,11.07-.67v-16.09h-7.21c-3.58,0-6.12-.56-7.63-1.68-1.51-1.12-2.26-3.07-2.26-5.87v-46.78h17.1v-16.1h-17.1V7.71Z"/>
      <path class="cls-1" d="M232.71,48.29v-15.43h-20.45v86.51h21.12v-43.93c0-7.94,2.15-13.94,6.46-18.02,4.3-4.08,10.48-6.12,18.53-6.12h5.36v-19.45c-1.57-.22-3.3-.34-5.2-.34-12.41,0-21.01,5.59-25.82,16.77Z"/>
      <path class="cls-1" d="M344.37,56.84c0-17.32-12.02-25.99-36.05-25.99s-37.67,9.84-38.9,29.51h20.79c.45-5.03,2.01-8.58,4.7-10.65,2.68-2.07,7.1-3.1,13.24-3.1,5.7,0,9.75.87,12.15,2.6,2.4,1.73,3.61,4.44,3.61,8.13,0,3.02-.95,5.28-2.85,6.79-1.9,1.51-5.03,2.54-9.39,3.1l-13.08,1.17c-22.13,2.24-33.2,11.23-33.2,26.99,0,8.16,2.82,14.53,8.47,19.11,5.64,4.58,13.22,6.87,22.72,6.87,12.74,0,22.02-4.19,27.83-12.57.56,5.25,1.34,8.78,2.35,10.56h21.12c-2.35-3.35-3.52-8.83-3.52-16.43v-46.11ZM323.92,85.17c0,6.82-2.07,12.05-6.2,15.68-4.14,3.63-9.5,5.45-16.09,5.45-4.69,0-8.3-1.03-10.82-3.1-2.51-2.07-3.77-4.95-3.77-8.64s1.2-6.51,3.6-8.47c2.4-1.95,6.4-3.27,11.99-3.94l11.4-1.34c4.58-.56,7.88-1.73,9.89-3.52v7.88Z"/>
    </g>
    <g>
      <path class="cls-2" d="M77.29,74.61c0,9.05-2.35,15.93-7.04,20.62-4.69,4.7-11.46,7.04-20.29,7.04s-15.59-2.35-20.29-7.04c-4.69-4.69-7.04-11.57-7.04-20.62V0H0v74.44c0,14.98,4.44,26.63,13.33,34.96,8.89,8.33,21.1,12.49,36.63,12.49s27.89-4.11,36.72-12.32c8.83-8.21,13.24-19.92,13.24-35.12V0h-22.63v74.61Z"/>
      <rect class="cls-2" x="116.52" width="21.12" height="119.38"/>
      <path class="cls-2" d="M182.75,7.71h-20.96v25.15h-13.41v16.1h13.41v48.96c0,7.71,2.15,13.33,6.46,16.85,4.3,3.52,11.15,5.28,20.54,5.28,2.79,0,6.48-.22,11.07-.67v-16.09h-7.21c-3.58,0-6.12-.56-7.63-1.68-1.51-1.12-2.26-3.07-2.26-5.87v-46.78h17.1v-16.1h-17.1V7.71Z"/>
      <path class="cls-2" d="M232.71,48.29v-15.43h-20.45v86.51h21.12v-43.93c0-7.94,2.15-13.94,6.46-18.02,4.3-4.08,10.48-6.12,18.53-6.12h5.36v-19.45c-1.57-.22-3.3-.34-5.2-.34-12.41,0-21.01,5.59-25.82,16.77Z"/>
      <path class="cls-2" d="M344.37,56.84c0-17.32-12.02-25.99-36.05-25.99s-37.67,9.84-38.9,29.51h20.79c.45-5.03,2.01-8.58,4.7-10.65,2.68-2.07,7.1-3.1,13.24-3.1,5.7,0,9.75.87,12.15,2.6,2.4,1.73,3.61,4.44,3.61,8.13,0,3.02-.95,5.28-2.85,6.79-1.9,1.51-5.03,2.54-9.39,3.1l-13.08,1.17c-22.13,2.24-33.2,11.23-33.2,26.99,0,8.16,2.82,14.53,8.47,19.11,5.64,4.58,13.22,6.87,22.72,6.87,12.74,0,22.02-4.19,27.83-12.57.56,5.25,1.34,8.78,2.35,10.56h21.12c-2.35-3.35-3.52-8.83-3.52-16.43v-46.11ZM323.92,85.17c0,6.82-2.07,12.05-6.2,15.68-4.14,3.63-9.5,5.45-16.09,5.45-4.69,0-8.3-1.03-10.82-3.1-2.51-2.07-3.77-4.95-3.77-8.64s1.2-6.51,3.6-8.47c2.4-1.95,6.4-3.27,11.99-3.94l11.4-1.34c4.58-.56,7.88-1.73,9.89-3.52v7.88Z"/>
    </g>
  </g>
  <path class="cls-1" d="M347.22,19.11h58.51c-25.71,28.28-38.9,61.7-39.57,100.26h23.47c.34-21.46,3.63-40.24,9.89-56.33,6.04-15.65,15.81-30.62,29.34-44.93V0h-81.65v19.11Z"/>
  <path class="cls-1" d="M437.09,0v19.11h58.52c-25.71,28.28-38.9,61.7-39.57,100.26h23.47c.33-21.46,3.63-40.24,9.89-56.33,6.04-15.65,15.82-30.62,29.34-44.93V0h-81.65Z"/>
  <polygon class="cls-1" points="491.5 108.19 495.81 108.19 495.81 119.37 498.39 119.37 498.39 108.19 502.7 108.19 502.7 105.9 491.5 105.9 491.5 108.19"/>
  <path class="cls-1" d="M512.37,112.31c-.39,1.12-.79,2.39-1.19,3.79-.62-1.99-1-3.21-1.15-3.65l-2.33-6.55h-3.71v13.47h2.46v-4.11c0-2.51-.02-4.72-.07-6.64.19.64.52,1.66,1,3.06l2.74,7.68h2.1l2.73-7.68c.4-1.12.75-2.16,1.02-3.1-.05,1.93-.08,4.16-.08,6.68v4.11h2.44v-13.47h-3.71l-2.25,6.41Z"/>
</svg>